<svg version="1.0" xmlns="http://www.w3.org/2000/svg" width="678.667" height="660" viewBox="0 0 509 495"><path d="M233 19.6c-9.9 1.1-19.5 2.9-28 5.1-8.9 2.3-11.3 3-21.7 6.7-6 2.2-22.7 10.5-30.3 15.1-30.8 18.5-58.8 49.9-73.9 82.7C59.4 172 56.3 224.5 71 269c19.8 60.1 66.3 105.3 127.5 124 16.6 5.1 33.6 7.4 54 7.3 30.9-.1 55-5.7 83-19.3 45.9-22.2 80.5-62 96.9-111.3 7.6-22.7 9-32.3 9-60.2 0-21.1-.3-25.4-2.3-35.5-4.8-23.9-15.7-50.5-28.6-70-18.2-27.4-44-50.2-73-64.8-27.9-13.9-49.4-19.1-81-19.7-11-.2-21.6-.1-23.5.1zm-2.6 168.1c5.8 10 10.6 18.7 10.6 19.2 0 .7-13.6 1.1-42.5 1.1H156v-19c0-12.7.4-19 1.1-19 .5 0 4.6 2.7 8.9 6 4.3 3.3 8.4 6 9 6 .7 0 4.9-2.9 9.5-6.4 4.6-3.6 8.6-6.2 8.9-5.9.3.4.6 8.7.6 18.5s.4 17.8.8 17.8 4.9-7.1 10-15.8c12.5-21.5 13.2-22.6 14.1-21.6.5.5 5.6 9.1 11.5 19.1zm118.4-16c1.4 1.1 4 3.6 5.6 5.7 2.9 3.5 3.1 4.4 3.1 11.6 0 8.8-1 10.9-7.9 16.4-3.5 2.9-4.4 3.1-11.4 3.1-6.5 0-8.2-.4-11-2.3-7.5-5.4-10.5-13.2-8.8-22.8.8-4.2 8.9-12.9 12.7-13.7 5-1.1 15.1.1 17.7 2zM279 182.8c0 12.4-.1 13-2.9 17.4-3.4 5.3-9.7 8.8-15.7 8.8-8.2-.1-16.2-6.1-18.4-13.8-1.1-4.1-1.4-23.5-.3-24.5.3-.4 8.9-.7 19-.7H279v12.8zm28.4-11.4c6.7 2.8 11 11.8 8.7 18.4-.8 2-2.2 4.7-3.3 5.8-1.9 2.2-1.9 2.2.1 6.3 1.2 2.2 2.1 4.5 2.1 5.1 0 .6-5.6 1-16 1h-16v-38h10.5c6.7 0 11.8.5 13.9 1.4zm-119.6 70.7-.3 16.4h-33l-.3-16.8c-.2-11.6.1-16.7.8-16.7.7 0 4.3 2.5 8.2 5.5 3.8 3 7.3 5.5 7.7 5.4.3 0 4-2.6 8.1-5.9 4.1-3.2 7.8-5.5 8.3-5.1.4.4.6 8.1.5 17.2zm29.8-15.2c6 4.3 7.7 7.6 7.8 14.7.1 5-.4 6.8-2.6 10.1-4.7 7.2-13.8 10-21.5 6.8-5-2.1-7.2-4.2-9.4-9-5.7-12.5 2.6-25.5 16.2-25.5 4.6 0 6.3.5 9.5 2.9zm124.7 13.5c5.3 9.1 9.7 16.9 9.7 17.5 0 .8-10.9 1-37.2.9l-37.3-.3-.3-16.8c-.1-9.2.1-16.7.5-16.7.3 0 3.9 2.5 7.8 5.5 4 3 7.5 5.5 7.9 5.5.3 0 .6-2.5.6-5.5v-5.6l8.3.3 8.2.3.5 15.5c.5 14.7.6 15.4 2.1 13 2.3-3.6 11.1-18.6 14.5-24.7 1.6-2.9 3.4-5.3 3.9-5.3.6 0 5.4 7.4 10.8 16.4zm-97.5-6.7.3 8.3h9l-.3 8.2-.3 8.3-12.7.3-12.8.3v-34.2l8.3.3 8.2.3.3 8.2zm29 8-.3 16.8h-17l-.3-15.4c-.2-8.4-.1-16 .2-16.7.4-1 2.7-1.4 9.1-1.4h8.5l-.2 16.7zM232.8 437c-.1.5-.2 7 0 14.5l.3 13.5h2.6c2.6 0 2.6 0 2.1-6.5-.6-7.2.5-8.6 2.2-2.8.5 2.1 1.4 4.4 1.9 5.2 1.5 2.3 3.9.4 5.1-3.9 1.6-5.8 2.8-4.1 2.9 4.2.1 3.4.4 3.8 2.6 3.8h2.6l-.3-14.3-.3-14.2-3.1-.3c-3-.3-3.1-.2-5.3 7.2-1.2 4.2-2.3 7.6-2.5 7.6-.2 0-1.2-3-2.2-6.8-1-3.7-2.3-7-2.8-7.4-1.6-1.1-5.4-1-5.8.2zM259.9 437.2c-.2.7-.3 7.3-.1 14.5l.3 13.3h2.6c2.6 0 2.6 0 2.1-6.5-.7-7.6.5-8.5 2.4-1.8 1.8 6.5 4.7 6.7 6.7.5 1.5-5 2.3-4.8 2.6.5.1 2.1.3 4.6.4 5.5.1 1.2.9 1.8 2.6 1.8h2.6l-.3-14.3-.3-14.2-3.1-.3c-3-.3-3.1-.2-5.3 7.2-1.2 4.2-2.3 7.6-2.5 7.6-.2 0-1.2-3-2.2-6.8-1-3.7-2.3-7-2.8-7.4-1.7-1.2-5.4-.9-5.7.4z"/></svg>