<?xml version="1.0" standalone="no"?>
<!DOCTYPE svg PUBLIC "-//W3C//DTD SVG 20010904//EN"
 "http://www.w3.org/TR/2001/REC-SVG-20010904/DTD/svg10.dtd">
<svg version="1.0" xmlns="http://www.w3.org/2000/svg"
 width="509.000000pt" height="495.000000pt" viewBox="0 0 509.000000 495.000000"
 preserveAspectRatio="xMidYMid meet">

<g transform="translate(0.000000,495.000000) scale(0.100000,-0.100000)"
fill="#000000" stroke="none">
<path d="M2330 4754 c-99 -11 -195 -29 -280 -51 -89 -23 -113 -30 -217 -67
-60 -22 -227 -105 -303 -151 -308 -185 -588 -499 -739 -827 -197 -428 -228
-953 -81 -1398 198 -601 663 -1053 1275 -1240 166 -51 336 -74 540 -73 309 1
550 57 830 193 459 222 805 620 969 1113 76 227 90 323 90 602 0 211 -3 254
-23 355 -48 239 -157 505 -286 700 -182 274 -440 502 -730 648 -279 139 -494
191 -810 197 -110 2 -216 1 -235 -1z m-26 -1681 c58 -100 106 -187 106 -192 0
-7 -136 -11 -425 -11 l-425 0 0 190 c0 127 4 190 11 190 5 0 46 -27 89 -60 43
-33 84 -60 90 -60 7 0 49 29 95 64 46 36 86 62 89 59 3 -4 6 -87 6 -185 0 -98
4 -178 8 -178 4 0 49 71 100 158 125 215 132 226 141 216 5 -5 56 -91 115
-191z m1184 160 c14 -11 40 -36 56 -57 29 -35 31 -44 31 -116 0 -88 -10 -109
-79 -164 -35 -29 -44 -31 -114 -31 -65 0 -82 4 -110 23 -75 54 -105 132 -88
228 8 42 89 129 127 137 50 11 151 -1 177 -20z m-698 -111 c0 -124 -1 -130
-29 -174 -34 -53 -97 -88 -157 -88 -82 1 -162 61 -184 138 -11 41 -14 235 -3
245 3 4 89 7 190 7 l183 0 0 -128z m284 114 c67 -28 110 -118 87 -184 -8 -20
-22 -47 -33 -58 -19 -22 -19 -22 1 -63 12 -22 21 -45 21 -51 0 -6 -56 -10
-160 -10 l-160 0 0 190 0 190 105 0 c67 0 118 -5 139 -14z m-1196 -707 l-3
-164 -165 0 -165 0 -3 168 c-2 116 1 167 8 167 7 0 43 -25 82 -55 38 -30 73
-55 77 -54 3 0 40 26 81 59 41 32 78 55 83 51 4 -4 6 -81 5 -172z m298 152
c60 -43 77 -76 78 -147 1 -50 -4 -68 -26 -101 -47 -72 -138 -100 -215 -68 -50
21 -72 42 -94 90 -57 125 26 255 162 255 46 0 63 -5 95 -29z m1247 -135 c53
-91 97 -169 97 -175 0 -8 -109 -10 -372 -9 l-373 3 -3 168 c-1 92 1 167 5 167
3 0 39 -25 78 -55 40 -30 75 -55 79 -55 3 0 6 25 6 55 l0 56 83 -3 82 -3 5
-155 c5 -147 6 -154 21 -130 23 36 111 186 145 247 16 29 34 53 39 53 6 0 54
-74 108 -164z m-975 67 l3 -83 45 0 45 0 -3 -82 -3 -83 -127 -3 -128 -3 0 171
0 171 83 -3 82 -3 3 -82z m290 -80 l-3 -168 -85 0 -85 0 -3 154 c-2 84 -1 160
2 167 4 10 27 14 91 14 l85 0 -2 -167z"/>
<path d="M2328 580 c-1 -5 -2 -70 0 -145 l3 -135 26 0 c26 0 26 0 21 65 -6 72
5 86 22 28 5 -21 14 -44 19 -52 15 -23 39 -4 51 39 16 58 28 41 29 -42 1 -34
4 -38 26 -38 l26 0 -3 143 -3 142 -31 3 c-30 3 -31 2 -53 -72 -12 -42 -23 -76
-25 -76 -2 0 -12 30 -22 68 -10 37 -23 70 -28 74 -16 11 -54 10 -58 -2z"/>
<path d="M2599 578 c-2 -7 -3 -73 -1 -145 l3 -133 26 0 c26 0 26 0 21 65 -7
76 5 85 24 18 18 -65 47 -67 67 -5 15 50 23 48 26 -5 1 -21 3 -46 4 -55 1 -12
9 -18 26 -18 l26 0 -3 143 -3 142 -31 3 c-30 3 -31 2 -53 -72 -12 -42 -23 -76
-25 -76 -2 0 -12 30 -22 68 -10 37 -23 70 -28 74 -17 12 -54 9 -57 -4z"/>
</g>
</svg>
