<?xml version="1.0" standalone="no"?>
<!DOCTYPE svg PUBLIC "-//W3C//DTD SVG 20010904//EN"
 "http://www.w3.org/TR/2001/REC-SVG-20010904/DTD/svg10.dtd">
<svg version="1.0" xmlns="http://www.w3.org/2000/svg"
 width="640.000000pt" height="640.000000pt" viewBox="0 0 640.000000 640.000000"
 preserveAspectRatio="xMidYMid meet">

<g transform="translate(0.000000,640.000000) scale(0.100000,-0.100000)"
fill="#000000" stroke="none">
<path d="M0 6131 l0 -269 29 -12 c16 -6 31 -21 34 -32 6 -20 6 -20 28 1 27 25
69 28 69 6 0 -11 11 -15 40 -15 22 0 40 -4 40 -10 0 -5 -18 -10 -40 -10 -37 0
-40 -2 -40 -29 0 -25 5 -30 46 -41 36 -10 56 -11 88 -2 38 11 43 10 63 -13 12
-13 33 -27 48 -31 15 -4 29 -14 32 -23 7 -20 44 -50 61 -51 7 0 12 15 12 40 0
22 5 40 10 40 6 0 10 -18 10 -40 0 -29 4 -40 15 -40 9 0 15 -9 15 -23 0 -29
29 -57 58 -57 15 0 22 -6 22 -20 0 -17 -7 -20 -40 -20 -22 0 -40 -5 -40 -11 0
-6 18 -9 48 -8 43 3 48 1 60 -24 7 -15 22 -33 33 -40 23 -14 25 -52 4 -73 -19
-20 -19 -48 0 -64 12 -10 15 -10 15 4 0 9 4 16 8 16 5 0 8 -10 8 -22 -1 -16 5
-23 19 -24 11 -1 23 -2 28 -4 4 -1 12 -3 19 -4 15 -1 23 -26 9 -26 -6 0 -11
-4 -11 -10 0 -15 77 -12 83 3 3 8 10 5 22 -10 9 -13 23 -23 31 -23 8 0 17 -6
20 -14 3 -8 19 -16 35 -20 21 -4 28 -10 22 -18 -8 -13 -9 -18 -12 -38 -2 -16
-41 -11 -41 5 0 14 -4 14 -37 0 -27 -11 -38 -12 -44 -4 -15 24 -29 -4 -29 -58
0 -50 2 -55 20 -50 11 3 18 1 14 -4 -3 -5 1 -9 8 -9 7 0 19 -9 26 -21 8 -12
10 -19 5 -16 -22 13 -103 47 -112 47 -6 0 -11 5 -11 10 0 6 -10 10 -23 10 -12
0 -58 12 -102 26 -44 14 -92 28 -107 30 -42 6 -110 -30 -138 -73 -14 -21 -31
-44 -38 -51 -7 -8 -19 -26 -26 -41 -8 -15 -26 -33 -40 -40 -14 -8 -39 -31 -56
-52 -22 -28 -39 -39 -58 -39 -41 -1 -62 -22 -62 -64 0 -30 4 -36 23 -37 16 -1
18 -2 5 -6 -10 -2 -18 -12 -18 -20 0 -9 -8 -22 -17 -29 -10 -7 -18 -18 -18
-25 0 -12 -16 -23 -49 -33 -12 -4 -17 -13 -13 -26 4 -17 0 -20 -29 -20 l-34 0
0 -415 c0 -411 0 -415 20 -415 12 0 24 -9 28 -21 8 -20 10 -20 24 -5 22 22 44
20 69 -5 15 -15 24 -18 32 -10 18 18 48 13 54 -9 6 -24 10 -25 30 -5 22 23 38
13 35 -21 l-2 -29 24 29 c25 30 64 31 52 1 -3 -9 0 -15 9 -15 8 0 15 5 15 11
0 6 12 9 28 7 19 -2 26 -8 24 -20 -3 -19 13 -24 23 -8 3 6 13 10 21 10 11 0
13 -6 9 -21 -7 -21 -7 -21 23 -4 35 21 72 14 52 -10 -10 -12 -10 -15 3 -15 8
0 20 7 27 15 15 18 31 10 23 -10 -7 -20 6 -19 28 1 21 19 43 9 36 -17 -6 -23
6 -25 23 -4 22 26 43 19 35 -12 -6 -26 -6 -27 13 -10 26 23 46 22 39 -3 -6
-24 5 -26 23 -5 14 17 36 20 45 6 3 -5 -2 -17 -11 -25 -14 -14 -14 -16 0 -16
8 0 19 7 24 16 6 11 14 14 22 9 10 -6 9 -11 -6 -23 -19 -14 -19 -14 1 -9 11 2
29 8 40 12 16 7 18 6 8 -6 -22 -23 -14 -29 16 -11 34 19 51 10 33 -18 -15 -25
3 -27 32 -5 27 20 41 7 19 -18 -15 -17 -16 -20 -2 -14 9 3 21 1 26 -4 7 -7 19
-6 36 2 31 14 61 5 53 -16 -4 -12 0 -14 19 -9 18 5 25 2 25 -9 0 -10 7 -13 20
-10 12 3 20 0 20 -7 0 -7 7 -10 15 -6 9 3 18 -1 22 -10 3 -8 12 -13 19 -10 7
3 16 1 19 -4 7 -12 65 -40 82 -40 7 0 13 -4 13 -10 0 -5 6 -10 14 -10 7 0 19
-7 26 -15 7 -8 19 -15 26 -15 12 0 14 50 13 293 -1 160 -4 325 -8 366 l-6 75
-32 -37 c-21 -24 -35 -55 -43 -94 -23 -108 -52 -298 -57 -365 -5 -71 -9 -76
-35 -55 -17 13 -39 92 -32 112 3 7 -1 33 -10 57 -8 25 -15 71 -16 104 -3 79
10 300 20 346 4 21 4 40 -2 46 -13 13 8 151 28 192 10 18 14 49 12 78 -2 35 0
46 10 44 9 -1 13 6 12 20 -4 42 0 68 9 68 5 0 22 5 36 10 21 8 25 13 16 24 -6
7 -8 27 -5 43 5 25 10 30 27 25 26 -7 35 -14 98 -75 52 -50 64 -43 29 16 -14
23 -31 37 -53 42 l-32 8 35 7 35 7 -42 19 c-24 10 -43 22 -43 27 0 11 14 9 48
-9 18 -8 36 -13 41 -10 5 3 11 -3 14 -13 3 -14 11 -17 31 -14 26 5 37 23 14
23 -9 0 -9 3 -1 11 6 6 9 18 6 25 -4 10 0 12 11 8 9 -3 16 -1 16 5 0 6 -6 11
-12 11 -7 1 -2 10 11 20 l23 20 -26 0 c-31 0 -35 15 -5 23 25 7 16 27 -12 27
-11 0 -24 -10 -30 -22 -9 -22 -9 -21 -6 4 3 20 -1 29 -14 33 -28 9 -23 26 6
19 20 -5 33 3 73 43 45 45 48 51 44 90 l-4 42 31 -12 c32 -12 55 -2 31 13 -10
6 -11 10 -3 10 7 0 10 7 7 15 -8 19 -18 19 -61 -1 -23 -11 -38 -13 -44 -7 -7
7 2 16 26 27 36 17 37 24 7 59 -8 9 -10 17 -4 17 6 0 19 -12 30 -27 18 -24 23
-26 45 -16 17 8 28 8 35 1 12 -12 42 -4 42 12 0 5 -22 10 -49 10 -31 0 -53 5
-61 15 -16 19 -5 34 12 17 7 -7 19 -12 27 -11 10 0 7 4 -6 9 -13 5 -23 13 -23
19 0 13 56 6 75 -9 8 -7 19 -10 22 -6 15 15 -16 42 -63 54 -113 29 -124 33
-118 43 6 10 55 6 90 -8 9 -3 14 2 14 16 0 12 4 21 9 21 6 0 8 -9 6 -20 -2
-12 4 -24 16 -30 15 -9 19 -7 19 5 0 8 4 15 9 15 5 0 17 27 27 60 22 68 39 80
29 20 -4 -22 -5 -40 -2 -40 3 0 14 16 26 35 11 19 27 35 34 35 8 0 26 12 40
26 26 25 26 25 7 57 -18 31 -23 62 -21 119 1 17 14 41 35 63 27 27 42 35 71
35 21 0 34 -4 30 -10 -3 -5 -16 -10 -27 -10 -35 0 -85 -45 -92 -83 -8 -42 4
-76 38 -110 l26 -26 0 29 c0 35 19 50 27 21 5 -21 6 -21 30 5 20 22 22 28 11
42 -11 15 -11 15 3 4 14 -11 23 -9 55 9 56 30 61 37 38 54 -15 12 -16 14 -3
15 9 0 16 7 16 15 0 10 -7 13 -24 9 -26 -7 -31 10 -7 24 13 7 15 19 12 53 -6
50 16 109 39 109 15 0 15 24 -2 76 -4 13 -1 27 8 36 8 8 17 26 20 39 2 15 5 7
6 -19 1 -46 28 -139 42 -148 5 -3 9 -14 9 -25 0 -20 15 -26 25 -9 12 19 14 53
5 70 -8 15 -6 17 9 13 19 -5 19 -3 6 40 -8 25 -19 56 -25 67 -6 12 -9 24 -6
27 2 3 17 -19 31 -47 l27 -52 36 33 c20 19 39 37 42 40 14 15 40 17 40 4 0 -8
-7 -15 -15 -15 -23 0 -31 -49 -10 -64 13 -9 15 -15 6 -20 -7 -5 0 -16 20 -34
18 -14 43 -51 56 -82 l25 -55 29 33 c34 38 35 50 9 134 -11 34 -20 64 -20 66
0 8 45 -12 58 -24 7 -8 22 -19 33 -24 10 -6 19 -15 19 -21 0 -5 10 -23 22 -39
16 -23 25 -27 35 -19 7 6 13 19 13 28 0 9 12 30 26 46 26 31 28 63 8 135 l-7
25 22 -24 c12 -14 24 -35 27 -47 5 -21 7 -21 23 -5 12 12 16 29 14 57 l-4 39
21 -27 c32 -41 46 -35 49 19 1 26 4 49 7 52 4 4 8 -115 4 -134 -1 -5 7 -2 18
8 10 9 24 17 31 17 6 0 21 16 33 35 11 20 23 34 25 31 3 -3 -2 -15 -11 -28
-27 -39 -18 -41 22 -4 52 50 75 48 30 -2 l-23 -25 22 6 c47 11 30 -11 -28 -38
-54 -25 -58 -28 -42 -41 11 -8 13 -13 6 -14 -12 0 -37 -18 -70 -49 -20 -19
-11 -37 17 -33 17 3 21 0 17 -12 -4 -10 -1 -16 9 -16 21 0 78 42 82 60 5 22
33 50 43 44 5 -3 3 -15 -5 -26 -8 -11 -12 -27 -9 -34 3 -10 -10 -21 -41 -35
-47 -20 -60 -39 -28 -39 24 0 42 -19 35 -36 -3 -8 -1 -14 5 -14 5 0 12 9 15
20 3 13 10 18 21 14 9 -3 16 -1 16 5 0 6 -6 11 -12 11 -7 0 1 13 18 28 37 32
58 68 50 88 -7 17 15 19 32 2 7 -7 13 -10 13 -8 3 10 7 68 8 118 1 44 4 52 19
50 13 -2 17 4 17 30 0 25 4 32 18 32 11 0 21 9 24 20 3 11 11 20 18 20 7 0 18
7 25 15 7 8 19 15 28 15 12 0 10 -6 -8 -25 -15 -16 -19 -25 -10 -25 9 0 8 -5
-4 -19 -18 -20 -14 -61 5 -61 5 0 7 -11 3 -25 -4 -16 -2 -25 6 -25 8 0 9 -10
5 -31 -6 -24 -4 -30 6 -27 8 3 15 22 17 47 3 34 8 44 28 51 13 5 24 16 24 23
0 8 8 24 19 35 17 21 20 21 67 7 28 -8 52 -11 57 -6 5 5 12 30 14 55 6 49 23
64 23 20 0 -19 4 -25 15 -20 13 5 13 2 -1 -19 -10 -15 -13 -32 -9 -42 5 -10 7
-21 7 -25 -1 -5 5 -8 14 -8 10 0 14 5 10 15 -4 12 0 14 18 9 14 -3 27 1 35 10
8 9 19 16 26 16 18 0 23 19 14 57 -4 19 -3 30 2 27 5 -3 9 -11 9 -18 0 -7 6
-20 13 -30 13 -17 15 -17 57 3 24 11 45 19 47 18 1 -2 -17 -21 -42 -43 -25
-21 -45 -43 -45 -48 0 -4 6 -4 13 1 6 5 32 16 57 23 25 7 50 17 56 22 6 4 14
5 17 2 13 -13 58 7 66 30 5 12 17 23 26 23 13 0 16 -7 11 -29 -3 -15 -2 -28 2
-28 8 0 32 94 32 127 0 22 13 37 23 27 3 -3 1 -20 -4 -37 -4 -18 -10 -52 -13
-75 -4 -38 -3 -43 12 -37 9 4 26 10 37 13 11 2 25 9 31 13 18 15 121 23 128
10 5 -7 -6 -11 -33 -11 -32 0 -44 -5 -57 -25 -11 -17 -25 -25 -45 -25 -16 0
-29 -5 -29 -11 0 -11 55 -8 107 7 16 4 21 2 20 -12 -1 -11 6 -20 17 -22 15 -3
17 0 12 13 -5 15 -4 16 9 5 8 -7 15 -21 15 -32 0 -15 -3 -17 -19 -8 -25 13
-108 13 -116 0 -3 -5 1 -10 9 -10 8 0 19 -7 24 -16 6 -11 11 -13 16 -5 13 20
27 12 16 -9 -14 -27 -4 -60 19 -60 9 0 26 -7 37 -15 10 -8 23 -15 28 -15 9 0
4 47 -10 90 -6 22 -5 23 8 12 9 -7 18 -26 22 -42 3 -17 9 -30 13 -30 5 0 22
23 38 51 43 72 65 100 76 94 5 -3 -6 -28 -24 -55 -58 -88 -77 -121 -77 -132 0
-9 9 1 47 51 2 2 6 2 9 -2 4 -3 -3 -22 -14 -41 l-20 -34 36 -4 c21 -3 39 -1
40 4 2 4 10 8 18 8 8 0 14 5 14 11 0 5 5 7 11 3 6 -3 8 -17 5 -29 -7 -28 26
-57 53 -48 13 5 14 3 4 -8 -30 -32 -2 -71 60 -83 32 -6 35 -5 30 14 -3 11 -9
23 -14 26 -12 7 -11 24 1 24 5 0 17 -17 26 -37 12 -28 18 -33 21 -20 7 27 23
20 30 -13 6 -34 11 -36 38 -16 11 8 25 12 31 9 7 -2 20 7 29 21 41 62 34 -2
-7 -69 -26 -43 -24 -59 4 -44 13 7 29 18 36 26 18 18 33 17 26 -2 -10 -26 14
-16 38 15 12 17 25 30 30 30 17 0 7 -26 -22 -60 -16 -19 -30 -37 -30 -40 0 -3
18 -4 40 -2 25 3 40 0 40 -7 0 -6 -10 -11 -23 -11 -28 0 -73 -29 -45 -30 9 0
20 -5 24 -11 5 -9 -1 -10 -19 -5 -40 10 -23 -21 21 -40 45 -18 35 -30 -13 -14
-42 14 -59 6 -23 -10 37 -17 51 -45 32 -64 -14 -14 -13 -17 9 -25 13 -5 31
-21 41 -36 16 -24 22 -26 59 -20 23 4 50 9 60 11 9 3 17 1 17 -3 0 -5 -25 -17
-55 -28 -30 -10 -53 -20 -51 -22 2 -2 -7 -16 -19 -29 -23 -25 -23 -26 -4 -45
22 -22 24 -40 7 -57 -9 -9 -9 -12 0 -12 7 0 12 -7 12 -16 0 -14 -1 -14 -16 0
-8 9 -21 13 -27 9 -8 -5 -6 -9 6 -11 9 -2 17 -7 17 -12 0 -14 33 -21 41 -8 6
9 13 6 26 -11 l19 -23 40 20 c49 24 96 39 74 22 -12 -9 -8 -10 18 -5 17 4 32
4 32 1 0 -8 -38 -46 -45 -46 -6 0 -25 -14 -58 -44 l-21 -20 30 -8 c16 -4 34
-15 41 -24 11 -15 14 -14 39 5 15 12 30 19 33 15 10 -9 -41 -42 -101 -66 -42
-17 -58 -28 -58 -42 0 -15 -3 -16 -15 -6 -10 9 -15 9 -15 1 0 -6 3 -11 8 -12
38 -4 70 -19 40 -19 -8 0 -15 -6 -15 -14 0 -13 16 -12 42 3 6 3 2 -2 -8 -12
-11 -10 -18 -19 -16 -20 17 -12 64 -27 84 -27 14 0 25 -4 25 -10 0 -5 16 -10
36 -10 19 0 33 -4 30 -8 -3 -5 -25 -7 -50 -6 -26 1 -46 -2 -46 -6 0 -15 37
-30 57 -24 15 5 16 4 3 -5 -13 -10 -10 -16 18 -42 38 -34 37 -46 -2 -28 -27
13 -50 4 -27 -10 10 -6 9 -10 -3 -14 -12 -5 -15 -14 -10 -32 5 -20 3 -24 -9
-19 -9 3 -23 2 -31 -3 -13 -7 -12 -11 4 -33 18 -24 19 -24 55 -7 21 10 40 16
43 13 2 -3 -7 -11 -22 -17 -32 -15 -33 -25 -5 -40 15 -8 18 -14 10 -22 -7 -7
-15 -6 -27 4 -13 10 -16 10 -10 1 16 -27 14 -61 -5 -67 -10 -4 -23 -4 -28 0
-6 3 -15 -3 -21 -15 -9 -17 -5 -23 40 -47 27 -16 50 -31 50 -35 0 -11 -28 -10
-35 1 -3 6 -18 16 -34 24 -26 13 -28 13 -24 -4 3 -11 9 -19 14 -19 5 0 9 -10
9 -22 -1 -22 -1 -22 -17 4 -19 30 -43 44 -43 25 0 -7 -13 -37 -30 -68 -20 -39
-28 -66 -25 -89 3 -28 1 -31 -16 -27 -14 4 -19 0 -19 -14 0 -25 8 -24 52 6 39
27 48 30 48 17 0 -4 -13 -16 -30 -25 -18 -11 -27 -23 -23 -32 3 -10 -1 -15
-12 -15 -14 0 -15 -3 -5 -15 15 -18 47 -20 53 -2 4 9 7 9 17 0 11 -10 10 -14
-4 -19 -10 -4 -31 -7 -47 -8 -33 -1 -36 -9 -12 -28 21 -15 24 -49 5 -56 -6 -2
-12 -16 -12 -31 0 -14 -6 -36 -14 -47 -18 -26 -110 -49 -164 -41 -43 5 -52 -5
-52 -61 0 -13 -6 -22 -12 -21 -27 3 -38 -1 -38 -15 0 -9 -12 -16 -27 -18 -23
-2 -28 -8 -28 -31 0 -20 -8 -33 -27 -45 -16 -9 -28 -20 -28 -25 0 -4 -4 -5
-10 -2 -9 6 -14 -10 -13 -42 1 -7 -7 -13 -17 -13 -10 0 -23 -7 -30 -15 -14
-17 -38 -117 -47 -193 -3 -29 -9 -54 -13 -57 -9 -6 -24 78 -21 117 3 31 -25
78 -45 78 -9 0 -14 -11 -14 -30 0 -16 4 -30 8 -30 12 0 11 -32 -1 -48 -9 -12
-1 -411 9 -421 11 -11 37 30 36 57 -2 68 119 68 154 1 19 -38 18 -82 -7 -207
-17 -83 -28 -115 -51 -144 -41 -53 -66 -115 -78 -195 -5 -39 -14 -83 -20 -97
-18 -49 -14 -55 31 -44 30 8 46 8 65 -2 19 -11 27 -11 36 -2 7 7 21 12 33 12
11 0 26 9 33 20 7 11 19 20 27 20 8 0 15 4 15 10 0 5 17 12 37 15 63 11 73 16
73 33 0 25 41 87 48 75 4 -6 15 -12 26 -14 11 -2 23 -18 30 -39 9 -30 16 -35
46 -38 80 -6 116 -22 139 -63 12 -21 30 -44 40 -51 17 -12 21 -18 21 -35 0 -5
5 -1 10 7 7 11 8 7 6 -15 -5 -51 -46 -82 -118 -90 -79 -8 -100 -14 -93 -26 4
-5 0 -9 -8 -9 -8 0 -17 -7 -21 -15 -7 -19 31 -147 48 -160 7 -6 17 -21 21 -35
4 -14 16 -35 27 -46 18 -20 22 -21 49 -7 16 8 27 18 24 23 -3 4 3 10 13 12 19
5 62 77 62 104 0 19 15 34 62 61 29 17 44 20 72 13 39 -9 70 6 64 30 -2 11 5
14 30 12 35 -4 74 26 87 66 6 20 54 36 78 26 8 -3 20 2 27 11 17 20 30 105 20
125 -9 17 5 60 19 60 12 0 26 -39 22 -62 -1 -9 7 -31 19 -50 11 -18 20 -41 20
-50 0 -17 36 -31 110 -42 23 -3 44 -16 62 -37 37 -43 137 -92 157 -76 11 9 15
9 18 0 3 -8 22 -13 49 -13 37 0 44 3 44 19 0 11 -8 22 -17 24 -10 3 -2 5 19 6
31 1 35 -2 31 -19 -4 -14 2 -22 21 -30 25 -9 30 -18 27 -52 -3 -23 12 -29 48
-22 44 9 43 41 -1 47 l-33 4 33 13 32 14 0 2091 0 2090 -24 18 c-13 10 -27 34
-30 53 -4 19 -11 34 -16 34 -13 0 -13 77 0 82 5 2 7 13 4 25 -4 13 -10 20 -15
18 -4 -3 -13 4 -19 15 l-11 20 -2422 -2 -2422 -3 -9 -37 c-5 -21 -13 -38 -18
-38 -4 0 -15 -18 -24 -40 -9 -22 -20 -40 -25 -40 -5 0 -9 -11 -9 -25 0 -18
-13 -34 -47 -60 -53 -38 -74 -43 -93 -20 -11 13 -14 13 -27 0 -8 -8 -20 -15
-27 -15 -8 0 -19 -6 -26 -14 -6 -8 -17 -13 -24 -10 -16 6 -40 -21 -32 -35 7
-11 119 -5 145 8 9 4 28 11 44 15 20 5 27 3 27 -9 0 -21 -41 -35 -99 -35 -77
0 -83 -20 -26 -75 26 -26 44 -49 41 -52 -8 -9 -108 62 -124 87 -7 11 -21 20
-32 20 -11 0 -20 7 -20 15 0 8 -6 15 -13 15 -16 0 -67 55 -67 72 -1 7 -12 22
-26 33 -14 11 -42 35 -62 52 -21 18 -40 33 -44 33 -5 0 -8 7 -8 15 0 8 -8 15
-18 15 -27 0 -102 79 -102 107 l0 23 -350 0 -350 0 0 -269z m1379 -51 c-7 -5
-19 -6 -26 -3 -11 5 -12 8 -2 13 7 5 19 6 26 3 11 -5 12 -8 2 -13z m2338 -16
c-3 -3 -12 -4 -19 -1 -8 3 -5 6 6 6 11 1 17 -2 13 -5z m-2697 -54 c21 -7 19
-8 -17 -9 -24 -1 -43 4 -43 9 0 12 24 12 60 0z m-753 -166 c-3 -3 -12 -4 -19
-1 -8 3 -5 6 6 6 11 1 17 -2 13 -5z m4423 -74 c0 -5 -4 -10 -10 -10 -5 0 -10
5 -10 10 0 6 5 10 10 10 6 0 10 -4 10 -10z m-4370 -20 c0 -5 -4 -10 -9 -10 -6
0 -13 5 -16 10 -3 6 1 10 9 10 9 0 16 -4 16 -10z m100 -55 c10 -12 10 -15 -4
-15 -9 0 -16 7 -16 15 0 8 2 15 4 15 2 0 9 -7 16 -15z m360 -425 c0 -5 -2 -10
-4 -10 -3 0 -8 5 -11 10 -3 6 -1 10 4 10 6 0 11 -4 11 -10z m980 -170 c0 -5
-2 -10 -4 -10 -3 0 -8 5 -11 10 -3 6 -1 10 4 10 6 0 11 -4 11 -10z m-118 -209
c2 -16 1 -37 -2 -47 -6 -16 -7 -15 -13 7 -10 34 -9 69 2 69 5 0 11 -13 13 -29z
m-1482 -401 c0 -5 -9 -10 -21 -10 -11 0 -29 -5 -40 -10 -15 -8 -19 -7 -19 4 0
14 20 21 63 25 9 0 17 -3 17 -9z m5070 -570 c-8 -5 -19 -10 -25 -10 -5 0 -3 5
5 10 8 5 20 10 25 10 6 0 3 -5 -5 -10z m-217 -395 c54 -40 -30 -85 -129 -69
-49 7 -60 13 -62 31 -5 34 33 53 108 53 40 -1 72 -6 83 -15z m-3923 -145 c0
-5 -5 -10 -11 -10 -5 0 -7 5 -4 10 3 6 8 10 11 10 2 0 4 -4 4 -10z m4674 -120
c16 -6 26 -17 26 -29 0 -33 -137 -55 -175 -27 -16 12 -17 16 -6 30 25 30 108
44 155 26z m507 -340 c26 -14 24 -42 -5 -69 -20 -19 -32 -22 -60 -17 -53 10
-67 53 -28 84 19 15 66 16 93 2z m-796 -346 c63 -63 60 -98 -15 -175 -36 -38
-63 -49 -115 -49 -106 0 -166 49 -164 133 0 37 16 98 18 72 1 -7 4 -7 9 0 15
21 72 45 109 46 21 1 52 5 68 9 17 4 33 8 38 9 4 0 27 -20 52 -45z m-515 -88
c0 -7 7 -19 15 -26 16 -14 20 -46 7 -54 -5 -3 -18 3 -29 13 -14 14 -19 28 -15
50 4 30 22 44 22 17z"/>
<path d="M768 6393 c7 -3 16 -2 19 1 4 3 -2 6 -13 5 -11 0 -14 -3 -6 -6z"/>
<path d="M952 6209 c2 -6 8 -10 13 -10 5 0 11 4 13 10 2 6 -4 11 -13 11 -9 0
-15 -5 -13 -11z"/>
<path d="M3978 5998 c9 -9 15 -9 24 0 9 9 7 12 -12 12 -19 0 -21 -3 -12 -12z"/>
<path d="M3512 5987 c-6 -6 -14 -26 -18 -42 -7 -28 -7 -29 10 -12 10 9 32 17
51 17 47 0 51 15 11 34 -41 19 -41 19 -54 3z"/>
<path d="M3920 5994 c0 -3 6 -12 14 -20 8 -7 16 -19 19 -26 8 -23 18 -1 11 26
-4 17 -13 26 -25 26 -10 0 -19 -3 -19 -6z"/>
<path d="M3722 5964 c-12 -8 -22 -25 -22 -38 0 -12 -5 -27 -12 -34 -14 -14 0
-16 21 -3 7 5 10 14 7 20 -4 6 -2 11 4 11 17 0 40 26 40 44 0 20 -10 20 -38 0z"/>
<path d="M3855 5969 c-67 -37 -66 -36 -48 -74 22 -46 43 -46 43 0 0 19 -4 35
-10 35 -5 0 -10 5 -10 11 0 6 13 1 30 -11 35 -25 47 -21 46 17 -1 31 -20 39
-51 22z"/>
<path d="M3545 5927 c-38 -12 -37 -11 -29 -31 6 -15 8 -14 22 6 l16 22 6 -24
6 -25 13 24 c17 30 4 41 -34 28z"/>
<path d="M4146 5901 c-8 -12 10 -41 25 -41 13 0 11 13 -4 35 -10 13 -16 15
-21 6z"/>
<path d="M3780 5883 c0 -13 5 -23 10 -23 13 0 13 11 0 30 -8 12 -10 11 -10 -7z"/>
<path d="M3306 5865 c-7 -19 3 -47 15 -39 12 7 12 54 0 54 -5 0 -11 -7 -15
-15z"/>
<path d="M2868 5825 c-9 -19 -9 -28 0 -37 9 -9 12 -7 12 11 0 12 4 19 10 16 6
-3 10 3 10 14 0 29 -18 26 -32 -4z"/>
<path d="M2404 5808 c-22 -28 -24 -48 -5 -48 22 0 31 18 22 43 -6 15 -9 16
-17 5z"/>
<path d="M4292 5796 c15 -12 26 -26 23 -30 -3 -3 1 -1 8 5 9 8 7 15 -12 30
-34 27 -51 24 -19 -5z"/>
<path d="M2619 5765 c9 -19 23 -34 34 -35 25 0 21 15 -10 45 -37 34 -44 32
-24 -10z"/>
<path d="M4435 5740 c3 -5 8 -10 11 -10 2 0 4 5 4 10 0 6 -5 10 -11 10 -5 0
-7 -4 -4 -10z"/>
<path d="M2463 5716 c23 -18 22 -29 -3 -16 -17 9 -20 8 -20 -8 0 -10 6 -24 13
-31 10 -11 10 -13 0 -7 -18 10 -16 -10 3 -39 15 -23 43 -37 29 -16 -3 6 2 14
11 19 13 7 15 16 9 38 -5 16 -7 33 -6 38 2 10 -29 35 -44 35 -5 0 -2 -6 8 -13z"/>
<path d="M4480 5710 c0 -13 18 -22 24 -11 3 5 -1 11 -9 15 -8 3 -15 1 -15 -4z"/>
<path d="M2396 5694 c-4 -10 -1 -14 6 -12 15 5 23 28 10 28 -5 0 -13 -7 -16
-16z"/>
<path d="M2690 5701 c0 -6 5 -13 10 -16 6 -3 10 1 10 9 0 9 -4 16 -10 16 -5 0
-10 -4 -10 -9z"/>
<path d="M2336 5684 c-11 -27 -7 -37 9 -24 16 14 20 40 6 40 -5 0 -12 -7 -15
-16z"/>
<path d="M2960 5679 c0 -5 5 -7 10 -4 6 3 10 8 10 11 0 2 -4 4 -10 4 -5 0 -10
-5 -10 -11z"/>
<path d="M3300 5668 c0 -19 2 -20 10 -8 13 19 13 30 0 30 -5 0 -10 -10 -10
-22z"/>
<path d="M2191 5635 c0 -22 4 -47 9 -55 13 -19 13 46 0 75 -7 16 -9 11 -9 -20z"/>
<path d="M2362 5622 c1 -17 7 -34 16 -37 11 -4 13 1 7 22 -10 42 -24 50 -23
15z"/>
<path d="M2256 5624 c-11 -28 -7 -35 14 -24 11 6 17 16 14 25 -8 20 -20 19
-28 -1z"/>
<path d="M2990 5615 c0 -8 2 -15 4 -15 2 0 6 7 10 15 3 8 1 15 -4 15 -6 0 -10
-7 -10 -15z"/>
<path d="M2436 5597 c3 -10 9 -15 12 -12 3 3 0 11 -7 18 -10 9 -11 8 -5 -6z"/>
<path d="M3031 5594 c0 -11 3 -14 6 -6 3 7 2 16 -1 19 -3 4 -6 -2 -5 -13z"/>
<path d="M3050 5599 c0 -5 5 -7 10 -4 6 3 10 8 10 11 0 2 -4 4 -10 4 -5 0 -10
-5 -10 -11z"/>
<path d="M4715 5601 c-3 -5 -2 -12 3 -15 5 -3 9 1 9 9 0 17 -3 19 -12 6z"/>
<path d="M3163 5585 c-17 -18 -16 -22 3 -29 9 -3 12 -2 9 5 -4 5 -1 16 5 24
16 19 -1 19 -17 0z"/>
<path d="M2280 5570 c-9 -6 -10 -10 -3 -10 6 0 15 5 18 10 8 12 4 12 -15 0z"/>
<path d="M2936 5572 c-3 -6 -1 -14 5 -17 14 -9 20 -2 10 14 -6 8 -11 9 -15 3z"/>
<path d="M4625 5570 c-3 -6 1 -7 9 -4 18 7 21 14 7 14 -6 0 -13 -4 -16 -10z"/>
<path d="M4780 5560 c0 -5 5 -10 11 -10 5 0 7 5 4 10 -3 6 -8 10 -11 10 -2 0
-4 -4 -4 -10z"/>
<path d="M2167 5425 c-10 -7 -14 -15 -10 -18 12 -8 36 9 32 21 -3 7 -10 6 -22
-3z"/>
<path d="M2124 5397 c-7 -20 8 -42 24 -36 7 3 6 13 -3 29 -12 23 -14 23 -21 7z"/>
<path d="M2072 5365 c-14 -16 -6 -20 28 -15 23 3 26 10 10 20 -19 13 -23 12
-38 -5z"/>
<path d="M2128 5293 c5 -21 7 -23 10 -9 2 10 0 22 -6 28 -6 6 -7 0 -4 -19z"/>
<path d="M2068 5291 c-15 -18 -15 -19 1 -24 19 -5 39 13 33 31 -5 17 -15 15
-34 -7z"/>
<path d="M1962 5288 c-7 -7 -12 -21 -12 -32 0 -18 1 -19 20 -1 20 18 27 45 12
45 -4 0 -13 -5 -20 -12z"/>
<path d="M2156 5253 c-6 -14 -5 -15 5 -6 7 7 10 15 7 18 -3 3 -9 -2 -12 -12z"/>
<path d="M2035 5239 c-10 -15 3 -25 16 -12 7 7 7 13 1 17 -6 3 -14 1 -17 -5z"/>
<path d="M1871 5213 c-9 -19 -9 -29 -1 -37 14 -14 30 9 30 42 0 30 -14 28 -29
-5z"/>
<path d="M1960 5179 c0 -5 5 -7 10 -4 6 3 10 8 10 11 0 2 -4 4 -10 4 -5 0 -10
-5 -10 -11z"/>
<path d="M4952 5141 c-11 -7 -11 -9 1 -14 16 -6 27 0 27 15 0 10 -11 10 -28
-1z"/>
<path d="M1748 4973 c7 -3 16 -2 19 1 4 3 -2 6 -13 5 -11 0 -14 -3 -6 -6z"/>
<path d="M5153 4953 c-52 -15 -61 -25 -45 -50 5 -8 13 -9 22 -3 12 8 11 10 -5
11 -13 0 -6 5 18 14 38 14 89 46 72 44 -6 0 -34 -8 -62 -16z"/>
<path d="M1760 4922 c0 -12 19 -26 26 -19 2 2 -2 10 -11 17 -9 8 -15 8 -15 2z"/>
<path d="M5140 4860 c-19 -12 -23 -50 -6 -50 27 0 67 20 61 30 -11 18 -41 29
-55 20z"/>
<path d="M5095 4829 c-11 -17 1 -21 15 -4 8 9 8 15 2 15 -6 0 -14 -5 -17 -11z"/>
<path d="M1645 4780 c-3 -5 -1 -10 4 -10 6 0 11 5 11 10 0 6 -2 10 -4 10 -3 0
-8 -4 -11 -10z"/>
<path d="M2818 4723 c6 -2 18 -2 25 0 6 3 1 5 -13 5 -14 0 -19 -2 -12 -5z"/>
<path d="M5071 4721 c-10 -7 -8 -10 8 -16 27 -8 36 -2 18 13 -7 6 -18 7 -26 3z"/>
<path d="M2907 4680 c3 -12 17 -26 30 -31 32 -12 33 -12 33 6 0 8 6 15 13 15
19 1 -13 17 -50 24 -29 7 -31 5 -26 -14z"/>
<path d="M5170 4640 c8 -5 22 -10 30 -10 13 0 13 1 0 10 -8 5 -22 10 -30 10
-13 0 -13 -1 0 -10z"/>
<path d="M2905 4620 c-3 -5 1 -10 10 -10 9 0 13 5 10 10 -3 6 -8 10 -10 10 -2
0 -7 -4 -10 -10z"/>
<path d="M2950 4605 c0 -8 6 -15 14 -15 22 0 28 17 10 24 -22 9 -24 8 -24 -9z"/>
<path d="M3320 4592 c0 -12 19 -26 26 -19 2 2 -2 10 -11 17 -9 8 -15 8 -15 2z"/>
<path d="M3125 4571 c-3 -5 0 -13 6 -17 6 -3 15 -1 19 5 9 16 63 3 57 -13 -3
-7 6 -22 19 -35 23 -22 24 -22 24 -3 0 10 -9 31 -21 46 -16 20 -29 26 -59 26
-21 0 -41 -4 -45 -9z"/>
<path d="M3312 4549 c5 -15 68 -53 68 -41 0 11 -52 52 -65 52 -4 0 -5 -5 -3
-11z"/>
<path d="M1545 4500 c3 -5 11 -10 16 -10 6 0 7 5 4 10 -3 6 -11 10 -16 10 -6
0 -7 -4 -4 -10z"/>
<path d="M3314 4494 c3 -9 6 -20 6 -25 0 -5 7 -9 15 -9 18 0 20 21 3 38 -17
17 -31 15 -24 -4z"/>
<path d="M3267 4486 c-4 -10 -1 -13 8 -9 8 3 12 9 9 14 -7 12 -11 11 -17 -5z"/>
<path d="M3360 4464 c0 -20 40 -58 51 -47 5 5 -4 20 -21 35 -20 18 -30 22 -30
12z"/>
<path d="M3921 4344 c13 -16 29 -19 29 -5 0 5 -9 11 -21 14 -16 4 -18 3 -8 -9z"/>
<path d="M3850 4324 c0 -3 7 -12 15 -21 20 -19 32 -9 15 12 -12 15 -30 20 -30
9z"/>
<path d="M5241 4314 c0 -11 3 -14 6 -6 3 7 2 16 -1 19 -3 4 -6 -2 -5 -13z"/>
<path d="M1953 4112 l-2 -47 19 23 c10 12 23 22 29 22 19 0 12 22 -9 27 -11 3
-20 9 -20 14 0 5 -3 9 -7 9 -5 0 -9 -21 -10 -48z"/>
<path d="M2036 4144 c-4 -9 -4 -19 -2 -21 8 -8 26 8 26 23 0 19 -16 18 -24 -2z"/>
<path d="M1920 4134 c0 -8 5 -12 10 -9 6 4 8 11 5 16 -9 14 -15 11 -15 -7z"/>
<path d="M1855 4120 c3 -5 8 -10 11 -10 2 0 4 5 4 10 0 6 -5 10 -11 10 -5 0
-7 -4 -4 -10z"/>
<path d="M5086 4093 c-6 -14 -5 -15 5 -6 7 7 10 15 7 18 -3 3 -9 -2 -12 -12z"/>
<path d="M5065 4060 c3 -5 8 -10 11 -10 2 0 4 5 4 10 0 6 -5 10 -11 10 -5 0
-7 -4 -4 -10z"/>
<path d="M2800 4013 c0 -5 -39 -9 -88 -11 -137 -4 -247 -21 -299 -44 -27 -12
-52 -20 -57 -19 -40 9 -198 -133 -239 -216 -39 -75 -51 -135 -31 -150 9 -6 13
-16 9 -22 -4 -7 4 -11 21 -11 20 0 25 3 17 11 -17 17 6 52 89 136 83 84 112
103 159 102 19 0 59 1 89 2 59 3 113 -7 143 -25 24 -14 130 -116 121 -116 -3
0 0 -7 7 -16 13 -15 9 -16 -46 -12 l-60 5 43 -20 c23 -12 42 -24 42 -27 0 -3
-17 -5 -37 -3 -34 3 -36 2 -16 -8 24 -13 38 -38 26 -50 -10 -9 -164 -47 -230
-56 -61 -8 -132 -40 -236 -108 -45 -29 -57 -53 -23 -47 9 2 17 -2 17 -8 5 -39
2 -38 52 -26 22 5 27 3 27 -13 0 -21 3 -22 90 -41 88 -20 88 -20 65 -33 -11
-6 -43 -14 -71 -18 -28 -4 -71 -16 -95 -27 l-44 -20 40 3 c22 1 81 -6 130 -16
166 -35 338 -30 397 12 15 10 31 19 36 19 12 0 102 60 128 85 25 24 38 55 22
55 -6 0 -4 8 5 18 10 10 17 24 17 30 0 16 17 15 24 0 8 -20 36 21 36 52 0 14
9 33 20 43 13 11 20 13 20 4 0 -8 4 -7 10 3 13 20 13 87 -1 96 -6 3 -8 16 -5
28 9 39 -11 157 -30 170 -16 12 -16 16 -2 58 18 52 14 100 -8 91 -10 -4 -14 3
-14 26 0 20 -10 40 -29 60 -29 29 -29 29 -39 8 -9 -18 -11 -19 -11 -5 -1 10
-11 20 -23 22 -21 4 -33 5 -93 6 -11 1 -30 7 -42 15 -25 17 -33 18 -33 8z
m320 -439 c0 -8 -5 -12 -10 -9 -6 4 -8 11 -5 16 9 14 15 11 15 -7z m-110 -249
c0 -8 -7 -15 -15 -15 -8 0 -15 7 -15 15 0 8 7 15 15 15 8 0 15 -7 15 -15z
m-61 -50 c-8 -7 -78 -9 -85 -2 -4 4 14 7 41 7 27 0 46 -2 44 -5z"/>
<path d="M5026 3995 c4 -8 10 -15 15 -15 5 0 9 7 9 15 0 8 -7 15 -15 15 -9 0
-12 -6 -9 -15z"/>
<path d="M2040 3964 c0 -17 22 -14 28 4 2 7 -3 12 -12 12 -9 0 -16 -7 -16 -16z"/>
<path d="M3868 3965 c-4 -4 -29 -9 -55 -12 -95 -10 -103 -11 -110 -13 -5 -2
-21 -4 -38 -4 -25 -1 -32 -7 -41 -36 -18 -57 -26 -120 -14 -118 7 2 13 -21 15
-54 4 -53 3 -59 -20 -74 -22 -14 -25 -24 -25 -73 0 -45 -4 -59 -20 -69 -11 -7
-20 -21 -20 -32 0 -11 -4 -20 -10 -20 -18 0 -10 -81 12 -131 25 -54 35 -61 40
-27 2 15 10 23 23 22 57 -3 57 -3 50 -33 -5 -23 -2 -32 16 -45 31 -21 16 -33
-15 -12 -29 19 -36 20 -36 6 0 -5 7 -10 16 -10 12 0 15 -6 11 -21 -10 -37 80
-130 116 -121 4 1 35 -12 69 -30 38 -20 81 -33 115 -36 30 -3 53 -9 53 -16 0
-14 101 -12 129 3 16 9 22 8 30 -6 9 -16 10 -16 11 -1 0 11 6 15 20 11 11 -3
26 0 33 6 8 6 17 8 20 4 4 -3 7 0 7 8 0 13 -71 49 -97 49 -7 0 -14 4 -17 8 -3
5 24 7 58 6 61 -3 64 -2 58 18 -4 18 -2 20 16 16 12 -4 20 -2 17 2 -9 14 16
23 28 11 13 -13 44 -15 51 -2 7 10 -68 127 -102 158 -14 13 -31 23 -39 23 -8
0 -23 9 -34 19 -12 11 -46 24 -78 30 -31 6 -60 13 -66 15 -40 13 -65 27 -65
36 0 5 -6 10 -13 10 -20 0 -57 35 -57 54 0 9 3 15 8 14 4 -1 21 6 37 15 l30
18 -57 -4 -56 -3 26 52 c15 29 34 55 42 58 8 3 23 11 34 18 15 10 20 10 23 1
7 -20 31 -15 43 8 9 17 14 18 26 8 12 -10 21 -9 44 4 20 12 49 17 97 16 56 -1
74 -6 103 -28 93 -68 137 -122 194 -238 19 -38 26 -26 25 40 -1 34 -4 50 -6
35 -5 -35 -23 -37 -23 -2 0 17 6 28 20 31 26 7 25 28 -2 55 -13 13 -39 49 -58
81 -45 74 -133 163 -190 192 -25 12 -76 32 -115 45 -38 12 -74 26 -80 30 -5 4
-41 13 -80 20 -38 6 -81 14 -95 17 -14 2 -28 1 -32 -2z m-128 -735 c0 -5 -7
-10 -15 -10 -8 0 -15 5 -15 10 0 6 7 10 15 10 8 0 15 -4 15 -10z"/>
<path d="M2012 3927 c-7 -8 -9 -17 -6 -20 4 -4 0 -17 -8 -29 -15 -24 -26 -66
-35 -133 -5 -41 -23 -74 -23 -42 0 11 -8 17 -25 17 -18 0 -25 5 -25 19 0 11
-6 21 -12 23 -16 6 -52 -38 -43 -52 3 -5 -1 -10 -9 -10 -19 0 -30 -41 -22 -81
3 -17 1 -40 -5 -51 -7 -13 -7 -24 -1 -30 6 -6 7 -22 1 -40 -4 -17 -6 -68 -3
-114 3 -52 1 -84 -5 -84 -15 0 -18 10 -26 70 -4 30 -11 63 -16 72 -5 9 -9 33
-9 52 0 19 -7 52 -16 73 -37 85 -35 83 -57 72 -18 -10 -19 -18 -14 -83 4 -39
12 -142 18 -228 12 -156 13 -158 36 -158 36 0 92 -27 100 -47 4 -10 20 -40 36
-66 28 -46 29 -52 23 -123 -4 -41 -9 -80 -11 -87 -5 -13 11 -45 18 -37 3 3 19
88 36 190 18 102 38 214 46 250 25 113 65 434 65 525 1 33 5 80 10 105 9 48 1
70 -18 47z m-159 -252 c4 -8 2 -17 -3 -20 -6 -4 -10 3 -10 14 0 25 6 27 13 6z"/>
<path d="M4475 3931 c-3 -5 -1 -12 5 -16 5 -3 10 1 10 9 0 18 -6 21 -15 7z"/>
<path d="M4490 3880 c0 -5 5 -10 10 -10 6 0 10 5 10 10 0 6 -4 10 -10 10 -5 0
-10 -4 -10 -10z"/>
<path d="M5040 3810 c0 -12 50 -33 58 -25 7 7 -29 34 -45 35 -7 0 -13 -5 -13
-10z"/>
<path d="M4494 3789 c8 -12 12 -29 9 -38 -4 -12 -1 -12 11 3 18 22 6 56 -20
56 -13 0 -13 -2 0 -21z"/>
<path d="M5008 3793 c7 -3 16 -2 19 1 4 3 -2 6 -13 5 -11 0 -14 -3 -6 -6z"/>
<path d="M4980 3759 c0 -11 -4 -19 -10 -19 -5 0 -10 5 -10 10 0 6 -7 10 -15
10 -8 0 -15 -9 -15 -19 0 -22 26 -36 34 -18 3 9 7 9 13 1 12 -17 68 -5 94 19
22 20 22 22 5 25 -10 2 -22 -1 -26 -8 -5 -8 -9 -8 -13 3 -8 22 -57 19 -57 -4z"/>
<path d="M4508 3693 c-5 -29 3 -83 14 -83 5 0 6 19 2 48 -8 54 -11 61 -16 35z"/>
<path d="M4760 3590 c0 -5 4 -10 9 -10 6 0 13 5 16 10 3 6 -1 10 -9 10 -9 0
-16 -4 -16 -10z"/>
<path d="M2618 3583 c7 -3 16 -2 19 1 4 3 -2 6 -13 5 -11 0 -14 -3 -6 -6z"/>
<path d="M2215 3560 c-3 -5 -1 -10 4 -10 6 0 11 5 11 10 0 6 -2 10 -4 10 -3 0
-8 -4 -11 -10z"/>
<path d="M2300 3495 l-24 -26 -18 23 c-14 19 -18 20 -18 6 0 -11 -5 -15 -14
-12 -7 3 -16 -1 -18 -8 -8 -19 3 -78 13 -78 11 0 86 77 100 103 14 24 7 21
-21 -8z"/>
<path d="M1320 3146 c0 -61 19 -88 46 -66 8 8 32 16 52 19 25 4 41 14 51 33
19 32 14 39 -36 45 -21 3 -42 9 -47 14 -6 5 -23 9 -38 9 -27 0 -28 -2 -28 -54z"/>
<path d="M1633 3078 c-28 -37 -33 -75 -25 -180 8 -93 13 -113 37 -150 l28 -42
13 43 c7 24 18 75 24 115 6 39 20 83 31 98 27 38 24 49 -19 91 -39 38 -72 47
-89 25z"/>
<path d="M15 2930 c-3 -5 1 -10 10 -10 9 0 13 5 10 10 -3 6 -8 10 -10 10 -2 0
-7 -4 -10 -10z"/>
<path d="M210 2930 c0 -5 5 -10 10 -10 6 0 10 5 10 10 0 6 -4 10 -10 10 -5 0
-10 -4 -10 -10z"/>
<path d="M395 2930 c-3 -5 1 -10 10 -10 9 0 13 5 10 10 -3 6 -8 10 -10 10 -2
0 -7 -4 -10 -10z"/>
<path d="M460 2930 c0 -5 5 -10 10 -10 6 0 10 5 10 10 0 6 -4 10 -10 10 -5 0
-10 -4 -10 -10z"/>
<path d="M65 2920 c4 -6 11 -8 16 -5 14 9 11 15 -7 15 -8 0 -12 -5 -9 -10z"/>
<path d="M2841 2826 c-23 -28 -22 -81 4 -132 26 -52 20 -80 -16 -69 -29 9 -24
-19 10 -57 46 -54 54 -74 39 -106 -11 -22 -20 -27 -50 -27 -20 0 -40 -3 -44
-7 -4 -5 -15 -8 -25 -8 -9 0 -20 -8 -23 -17 -5 -13 -9 -14 -15 -5 -6 10 -18
10 -52 3 -50 -12 -75 -14 -66 -5 9 10 -32 44 -47 38 -8 -3 -17 0 -21 6 -5 8
-14 6 -31 -5 -32 -20 -31 -1 1 27 14 12 25 29 25 38 0 10 9 29 21 44 25 31 22
60 -7 64 -36 5 -89 -24 -151 -83 -62 -60 -113 -103 -113 -97 0 3 -6 0 -12 -6
-7 -7 -13 -18 -13 -25 0 -7 -7 -12 -15 -12 -8 0 -19 -13 -25 -30 -5 -16 -15
-36 -22 -43 -8 -8 -11 -43 -8 -112 4 -84 2 -101 -12 -108 -18 -11 -9 -32 13
-32 11 0 12 -4 2 -19 -8 -14 -14 -16 -23 -7 -7 6 -10 17 -8 23 4 9 -6 13 -30
13 -22 0 -37 6 -41 16 -3 8 -10 13 -14 10 -5 -3 -16 9 -26 25 -13 22 -24 29
-37 26 -19 -5 -49 30 -49 58 0 13 -4 14 -20 5 -15 -8 -20 -8 -20 1 0 6 -7 9
-15 6 -30 -12 -27 17 6 45 30 25 31 28 10 22 l-24 -6 21 22 20 22 -20 37 c-11
20 -27 44 -35 53 -12 14 -13 23 -5 48 6 17 7 28 3 25 -5 -2 -16 10 -25 28 -10
21 -16 26 -16 14 0 -29 -22 -14 -35 24 -14 39 -3 90 25 126 l18 23 5 -27 c3
-15 3 -42 0 -60 -4 -20 -1 -33 5 -33 7 0 12 41 14 110 3 107 -3 138 -16 83
-11 -46 -30 -83 -42 -83 -7 0 -25 -14 -41 -31 -23 -22 -32 -43 -36 -81 -8 -67
13 -100 61 -95 17 2 32 1 32 -3 1 -3 2 -77 3 -166 l1 -161 -27 -32 c-15 -18
-27 -37 -27 -42 0 -5 -7 -9 -15 -9 -8 0 -12 -6 -9 -14 3 -8 -2 -17 -13 -20
-10 -3 -2 -3 17 -2 19 2 46 7 59 11 21 7 23 6 13 -11 -6 -11 -30 -23 -58 -29
-26 -5 -49 -15 -51 -22 -6 -16 55 -27 72 -13 10 9 19 5 39 -17 43 -46 31 -58
-48 -55 l-68 3 6 -73 c3 -40 8 -223 10 -405 l3 -333 -41 -10 c-64 -17 -116
-40 -178 -82 -32 -21 -62 -38 -68 -38 -5 0 -10 -3 -10 -7 0 -19 -69 -53 -106
-53 -21 0 -66 -11 -98 -25 -33 -13 -62 -22 -64 -20 -8 8 -5 84 33 720 2 39 7
126 10 195 3 69 12 231 20 360 8 129 17 289 20 355 4 66 8 132 10 148 5 41
-21 50 -81 28 -27 -11 -84 -25 -126 -32 -74 -12 -79 -12 -93 7 -10 13 -13 14
-10 3 8 -21 -37 -40 -90 -37 -22 1 -52 -2 -67 -6 -21 -6 -27 -4 -31 11 -4 16
-5 16 -6 1 -1 -11 -6 -15 -16 -12 -11 4 -15 -1 -15 -17 0 -17 -3 -20 -11 -12
-8 8 -16 9 -29 1 -23 -15 -48 -4 -60 24 -8 22 -9 21 -10 -7 l-1 -30 -14 30
-13 30 -1 -26 c-1 -33 -28 -45 -51 -24 -16 14 -18 14 -23 1 -9 -24 -37 -7 -38
23 l0 26 -12 -25 c-16 -36 -17 -37 -33 -16 -8 11 -14 16 -14 10 0 -5 -4 -15
-9 -23 -8 -12 -12 -12 -24 -2 -10 8 -17 9 -22 1 -11 -18 -35 -11 -36 13 -1 21
-1 21 -8 -2 -9 -33 -25 -37 -39 -9 -8 18 -11 19 -11 6 -1 -30 -31 -21 -31 10
l-1 27 -14 -32 c-16 -37 -29 -41 -44 -15 -8 15 -11 14 -21 -12 -29 -77 -46
-208 -60 -456 -16 -295 -40 -891 -41 -1015 0 -113 -10 -167 -24 -133 -9 23 6
835 20 1059 5 84 5 87 -17 93 -13 3 -26 6 -30 6 -5 0 -8 -472 -8 -1050 l0
-1050 961 0 c637 0 958 3 954 10 -3 5 -13 10 -21 10 -8 0 -14 5 -14 12 0 6
-12 23 -27 37 -28 26 -48 53 -59 81 -4 8 -19 43 -35 78 -16 34 -29 69 -29 77
0 8 -3 15 -8 15 -14 0 -61 116 -81 199 -30 124 -35 187 -21 276 17 111 49 174
120 236 56 49 61 57 86 138 14 47 29 97 34 111 14 44 30 103 48 177 18 70 18
71 39 55 11 -10 31 -45 43 -79 12 -35 26 -60 31 -58 4 3 10 1 14 -5 3 -5 1
-10 -4 -10 -14 0 -7 -43 7 -48 7 -2 12 -24 12 -52 0 -27 5 -52 11 -56 6 -3 9
-15 6 -25 -3 -10 -1 -22 4 -25 14 -8 10 -24 -6 -24 -8 0 -15 -2 -15 -5 0 -7
39 -45 44 -42 2 1 15 -11 27 -28 13 -16 28 -33 33 -37 6 -4 3 -10 -7 -14 -25
-9 -21 -21 10 -29 21 -5 24 -8 13 -15 -11 -7 -8 -11 13 -19 15 -6 27 -14 28
-18 0 -5 2 -19 3 -32 2 -13 15 -33 29 -43 17 -12 27 -29 27 -44 0 -13 5 -24
11 -24 5 0 16 -15 24 -33 8 -19 21 -39 29 -47 9 -7 16 -18 16 -25 0 -7 12 -16
27 -20 19 -4 23 -9 14 -14 -9 -6 -10 -11 -2 -15 14 -9 14 -43 1 -51 -6 -4 -17
-2 -25 5 -19 16 -27 -3 -15 -34 12 -32 40 -34 41 -3 1 18 2 18 6 4 5 -18 6
-18 24 -1 19 17 21 17 41 -3 l20 -21 -21 -11 c-14 -8 -27 -9 -40 -2 -20 11
-31 5 -31 -16 0 -8 12 -13 31 -13 33 0 59 -19 59 -45 0 -9 18 -34 40 -56 22
-22 40 -45 40 -50 0 -5 7 -9 15 -9 8 0 15 5 15 10 0 6 -7 13 -15 16 -23 9 -19
54 5 54 29 0 57 -32 62 -72 3 -29 1 -34 -13 -31 -18 5 -49 -22 -49 -43 0 -8 6
-14 14 -14 8 0 16 -16 20 -39 3 -22 12 -41 18 -44 35 -12 -14 -21 -120 -21
-64 -1 -98 -2 -74 -4 28 -2 42 -8 42 -18 0 -10 -12 -14 -40 -14 -30 0 -40 -4
-40 -16 0 -13 -9 -15 -44 -13 -32 3 -42 1 -39 -8 3 -8 22 -13 44 -13 32 0 39
-3 39 -20 0 -16 -7 -20 -38 -20 -46 0 -122 51 -122 82 0 23 -34 71 -44 61 -11
-12 -6 -72 10 -113 l16 -40 142 0 c89 0 146 4 153 11 8 8 17 8 31 0 14 -8 191
-11 565 -11 621 0 560 -11 561 97 l1 63 -51 0 c-38 0 -55 5 -69 20 -17 19 -17
21 0 40 10 11 13 20 7 20 -7 0 -12 17 -12 41 0 35 -3 41 -18 37 -15 -4 -17 0
-14 23 4 26 8 29 43 29 32 0 39 4 39 19 0 10 7 21 15 25 20 7 19 26 -1 26 -29
0 -8 25 27 31 19 4 27 7 19 8 -12 1 -12 4 3 15 9 7 17 24 18 37 0 13 3 18 6
12 7 -19 36 -15 56 7 10 12 17 37 17 63 0 24 5 48 11 54 5 5 10 29 11 52 0 34
6 46 32 66 23 18 26 25 14 25 -26 0 -22 15 6 28 15 6 27 23 31 41 4 17 11 31
16 31 13 0 37 53 31 70 -2 8 -1 12 3 8 5 -5 16 6 26 22 11 17 23 30 29 30 13
0 13 4 -11 -92 -32 -132 -40 -161 -50 -194 -6 -20 -6 -41 0 -57 20 -51 31
-213 22 -308 -13 -129 -52 -279 -72 -279 -5 0 -9 -7 -9 -15 0 -8 -4 -15 -10
-15 -5 0 -10 -6 -10 -13 0 -8 -9 -22 -20 -32 -11 -10 -20 -22 -20 -27 0 -11
2147 -11 2154 0 3 5 0 24 -5 43 -10 32 -14 34 -45 31 -29 -4 -32 -6 -23 -23 6
-13 6 -19 0 -19 -6 0 -15 9 -21 20 -6 11 -15 20 -21 20 -13 0 -89 62 -89 73 0
19 41 4 63 -23 30 -35 33 -36 47 -11 15 29 3 53 -20 41 -29 -16 -32 -12 -10
12 11 12 20 28 20 35 0 7 9 22 21 34 12 12 18 27 14 39 -3 10 -1 21 5 25 5 3
10 10 10 16 0 12 -37 12 -45 -1 -3 -5 -26 -10 -51 -10 -28 0 -43 4 -39 10 9
15 -4 12 -21 -5 -18 -18 -51 -7 -105 36 -22 17 -39 27 -39 23 0 -5 -17 10 -37
33 -21 23 -51 49 -68 57 -27 14 -28 16 -7 16 29 0 28 4 -10 64 l-33 50 -9 -27
c-6 -15 -13 -27 -18 -27 -4 0 -8 -7 -8 -15 0 -11 -11 -15 -42 -15 -24 0 -38 4
-31 8 7 4 11 15 9 24 -4 29 -13 30 -20 3 -5 -18 -13 -25 -31 -25 -20 0 -24 4
-22 28 2 25 -1 27 -44 30 -43 3 -47 1 -53 -23 -8 -32 -33 -32 -48 0 -9 21 -18
25 -52 25 -61 0 -118 36 -129 82 -5 20 -17 44 -27 53 -25 22 -91 37 -107 24
-7 -6 -16 -8 -21 -5 -5 3 -23 -4 -41 -15 -31 -18 -39 -19 -110 -8 -42 6 -89
17 -106 25 -63 27 -81 27 -124 0 -22 -14 -46 -26 -52 -26 -26 0 -129 46 -135
60 -9 22 -18 511 -10 554 5 28 19 45 61 78 30 24 54 49 54 57 1 16 39 87 61
116 9 11 24 52 34 90 9 39 25 86 35 105 45 88 69 218 50 266 -6 16 -13 25 -15
19 -1 -5 -8 -29 -14 -52 -13 -51 -44 -60 -60 -18 -5 14 -15 25 -22 25 -9 0 -8
-3 2 -10 10 -6 11 -10 3 -10 -7 0 -13 -7 -13 -15 0 -8 5 -15 10 -15 6 0 10 -7
10 -15 0 -18 -5 -18 -31 -5 -10 6 -19 20 -19 30 0 25 -20 27 -21 3 -1 -12 -4
-10 -9 7 -8 25 -8 25 -9 2 -1 -13 4 -32 9 -43 7 -11 7 -19 1 -19 -5 0 -12 6
-15 13 -3 8 -8 7 -16 -5 -6 -10 -23 -18 -39 -18 -24 0 -30 5 -35 31 -3 17 -3
36 1 43 4 6 8 58 9 115 1 89 -2 106 -18 120 -10 8 -18 18 -18 22 0 7 -81 133
-109 169 -11 14 -38 44 -61 68 -57 58 -74 45 -48 -38 7 -22 16 -40 20 -40 5 0
8 -12 8 -27 0 -21 -3 -24 -9 -14 -7 11 -14 8 -35 -15 -14 -16 -26 -34 -26 -40
0 -14 -70 6 -70 20 0 16 -34 35 -62 36 -16 0 -28 4 -28 9 0 4 -11 6 -25 3 -13
-2 -33 -1 -42 3 -10 5 -21 7 -26 7 -4 -1 -5 9 -1 22 4 19 1 26 -15 31 -12 3
-21 11 -21 16 0 21 21 49 37 49 9 0 13 3 10 7 -4 3 1 12 10 18 16 12 16 14 1
29 -9 9 -24 16 -32 16 -9 0 -16 7 -16 15 0 19 -74 54 -112 55 -31 0 -109 -28
-119 -43 -4 -6 -14 -7 -24 -4 -9 4 -14 3 -11 -2 3 -4 -12 -22 -34 -40 -38 -30
-40 -31 -40 -10 0 18 -3 19 -15 9 -9 -7 -26 -9 -46 -5 -22 5 -34 3 -40 -6 -7
-11 -9 -11 -9 1 0 9 -9 22 -20 30 -11 8 -20 18 -20 22 0 9 -49 58 -58 58 -4 0
-20 11 -36 25 -29 25 -70 33 -81 16 -3 -6 -13 -9 -23 -9 -9 0 -26 -3 -36 -7
-16 -7 -18 -5 -13 8 4 11 1 17 -7 17 -8 0 -17 6 -19 13 -4 8 -6 7 -6 -3 -1
-21 -33 40 -37 71 -3 20 2 28 17 32 12 3 18 10 14 16 -9 15 -20 14 -34 -3z
m-2331 -392 c170 -19 374 -57 423 -77 25 -11 37 -22 37 -36 0 -18 -2 -18 -47
-5 -57 17 -339 58 -513 74 -69 6 -129 15 -134 20 -5 5 -6 16 -3 24 8 21 61 21
237 0z m2622 -158 c11 3 23 2 27 -3 35 -50 118 -68 176 -37 46 25 99 21 135
-10 25 -21 28 -27 16 -32 -25 -10 -298 3 -329 15 -16 6 -41 11 -56 11 -16 0
-46 8 -67 17 -32 13 -35 17 -19 21 11 2 29 10 39 18 14 9 24 10 38 3 10 -6 28
-7 40 -3z m-284 -39 c-3 -24 -42 -31 -59 -11 -15 19 9 42 39 36 16 -3 22 -10
20 -25z m92 -7 c-18 -12 -44 -9 -42 5 1 6 6 10 11 10 5 0 13 3 17 8 4 4 12 3
18 -3 8 -8 6 -14 -4 -20z m710 -56 c0 -8 -5 -12 -10 -9 -6 4 -8 11 -5 16 9 14
15 11 15 -7z m108 -27 c4 -19 -14 -22 -52 -7 -38 14 -32 29 11 26 27 -1 39 -7
41 -19z m-615 -48 c12 -6 34 -22 48 -36 l26 -24 39 20 c22 11 56 23 77 27 35
6 41 4 77 -36 l38 -41 32 16 c37 19 62 13 96 -23 24 -26 26 -26 39 -9 13 18
14 18 24 -1 15 -29 -4 -88 -31 -96 -13 -3 -27 -1 -32 4 -5 5 -19 -4 -33 -21
-33 -38 -74 -39 -102 -1 -21 27 -21 27 -27 5 -3 -13 -10 -23 -15 -23 -5 0 -9
-9 -9 -19 0 -13 9 -21 28 -25 81 -15 114 -17 126 -7 10 8 17 7 26 -4 10 -13 9
-15 -8 -15 -12 0 -23 -4 -26 -9 -3 -5 -15 -7 -26 -4 -12 3 -28 -1 -38 -9 -33
-30 -242 -2 -242 32 0 8 7 25 15 37 14 20 14 23 -4 33 -11 5 -37 10 -59 10
-21 0 -67 3 -102 7 -50 5 -64 10 -68 25 -4 17 -6 17 -28 3 -34 -22 -89 -19
-105 6 -13 19 -16 19 -43 5 -38 -19 -62 -7 -75 39 -12 44 5 105 29 105 9 0 29
-11 45 -26 15 -14 28 -24 29 -22 1 2 8 15 15 30 18 35 38 39 78 16 38 -23 65
-17 87 17 18 28 61 33 99 14z m-413 -100 c0 -11 -4 -19 -9 -19 -10 0 -21 24
-21 47 0 13 3 13 15 3 8 -7 15 -21 15 -31z m-240 1 c11 0 110 -100 110 -111 0
-13 66 -49 90 -49 12 0 33 12 45 26 22 25 24 26 80 14 31 -6 73 -19 93 -28 21
-9 71 -17 112 -18 167 -7 185 -9 185 -23 0 -10 -21 -15 -80 -18 -161 -8 -236
-8 -243 2 -18 26 -79 44 -95 29 -8 -8 15 -44 29 -44 6 0 19 -9 29 -20 10 -11
29 -20 42 -20 23 0 62 -17 73 -32 3 -4 51 -10 105 -13 55 -3 129 -9 164 -14
36 -6 68 -8 73 -5 5 3 39 8 76 10 92 7 183 19 207 29 61 24 108 48 123 61 9 8
31 27 49 43 57 52 100 82 133 91 28 8 31 7 28 -13 -2 -18 3 -23 27 -25 37 -5
46 -18 34 -49 -5 -14 -9 -42 -9 -65 0 -31 -6 -45 -25 -60 -14 -11 -23 -23 -20
-28 7 -12 -11 -56 -32 -77 -10 -10 -23 -30 -30 -44 -9 -21 -17 -25 -36 -22
-30 6 -42 -10 -28 -36 10 -17 6 -21 -24 -31 -19 -6 -35 -15 -35 -20 0 -4 -9
-10 -21 -13 -11 -3 -19 -11 -18 -19 6 -49 -2 -69 -31 -74 -30 -6 -52 -25 -49
-40 5 -29 -4 -52 -23 -61 -91 -43 -114 -50 -102 -31 5 8 2 9 -11 4 -12 -4 -32
3 -58 20 -40 26 -40 26 -34 80 7 63 14 81 30 65 14 -14 30 -14 22 -1 -3 6 5
10 19 10 21 0 25 6 31 40 4 21 3 45 -1 51 -5 9 -2 10 9 6 12 -5 17 -1 17 13 0
11 5 20 11 20 16 0 38 31 39 52 0 13 -12 18 -47 23 -27 4 -57 10 -68 15 -36
15 -125 20 -125 7 0 -9 -41 -12 -158 -11 -86 1 -159 3 -162 4 -17 7 -147 7
-160 0 -9 -6 -10 -10 -2 -10 6 0 12 -4 12 -10 0 -5 -15 -8 -32 -6 -22 2 -37
-2 -45 -13 -17 -22 -16 -51 2 -51 23 0 18 -18 -7 -23 -20 -4 -19 -4 5 -6 30
-1 67 -32 67 -57 0 -11 6 -15 18 -12 21 6 58 -47 41 -58 -6 -4 -6 -11 2 -20 6
-8 8 -14 3 -14 -5 0 -2 -5 6 -10 13 -9 13 -11 0 -20 -8 -5 -11 -10 -6 -10 5 0
-11 -18 -35 -41 -33 -31 -45 -37 -47 -25 -4 20 -21 20 -48 1 -19 -13 -23 -12
-48 14 -24 25 -33 28 -68 23 -37 -4 -41 -3 -36 14 3 10 7 25 9 33 2 8 -6 17
-21 21 -17 4 -27 16 -34 38 -5 18 -13 32 -17 32 -5 0 -9 11 -9 25 0 13 -9 33
-21 44 -14 13 -19 26 -14 40 3 12 2 21 -3 21 -5 0 -9 15 -8 33 0 24 -4 32 -16
32 -10 0 -23 6 -30 13 -9 9 -9 12 0 12 22 0 12 27 -15 41 -47 24 -53 35 -59
106 -2 37 -7 78 -10 90 -2 13 1 31 7 42 7 11 9 26 4 37 -10 24 -13 56 -8 71 8
20 66 32 81 16 7 -7 17 -13 22 -13z m1810 -99 c0 -5 -6 -14 -14 -20 -12 -10
-13 -8 -9 8 5 21 23 30 23 12z m-2195 -771 c3 -5 1 -10 -4 -10 -6 0 -11 5 -11
10 0 6 2 10 4 10 3 0 8 -4 11 -10z m-1665 -505 c7 -8 27 -19 44 -23 69 -18 30
-52 -76 -67 -51 -7 -57 -1 -33 31 20 27 19 34 -10 34 -13 0 -40 -14 -60 -31
-48 -43 -47 -13 2 35 31 30 45 36 79 36 25 0 47 -6 54 -15z m3300 5 c0 -5 -4
-10 -10 -10 -5 0 -10 5 -10 10 0 6 5 10 10 10 6 0 10 -4 10 -10z m-1145 -160
c-3 -5 -12 -10 -20 -10 -8 0 -17 5 -20 10 -4 6 5 10 20 10 15 0 24 -4 20 -10z
m252 -146 c-3 -3 -12 -4 -19 -1 -8 3 -5 6 6 6 11 1 17 -2 13 -5z m614 -35 c23
-12 16 -29 -11 -29 -21 0 -34 15 -25 30 8 13 12 12 36 -1z m-21 -59 c0 -5 -4
-10 -9 -10 -6 0 -13 5 -16 10 -3 6 1 10 9 10 9 0 16 -4 16 -10z m-893 -156
c-3 -3 -12 -4 -19 -1 -8 3 -5 6 6 6 11 1 17 -2 13 -5z"/>
<path d="M4660 2830 c0 -5 -16 -24 -36 -43 -29 -26 -34 -37 -29 -58 8 -34 45
-52 64 -32 20 22 40 107 29 127 -10 18 -28 22 -28 6z"/>
<path d="M908 2753 c6 -2 18 -2 25 0 6 3 1 5 -13 5 -14 0 -19 -2 -12 -5z"/>
<path d="M786 2740 c-13 -4 -16 -9 -8 -14 7 -4 19 -3 28 2 21 12 5 22 -20 12z"/>
<path d="M3754 2732 c-22 -19 -21 -42 2 -42 8 0 14 -4 14 -10 0 -5 11 -10 24
-10 17 0 29 9 40 31 9 17 13 35 10 40 -9 15 -68 9 -90 -9z"/>
<path d="M704 2729 c-3 -5 6 -9 20 -9 31 0 34 6 6 13 -11 3 -23 1 -26 -4z"/>
<path d="M615 2721 c-24 -5 -27 -8 -12 -14 10 -4 32 0 50 7 35 16 16 19 -38 7z"/>
<path d="M545 2710 c-3 -5 1 -10 9 -10 9 0 16 5 16 10 0 6 -4 10 -9 10 -6 0
-13 -4 -16 -10z"/>
<path d="M430 2701 c0 -12 28 -22 35 -12 3 5 -2 12 -11 15 -21 8 -24 8 -24 -3z"/>
<path d="M490 2700 c0 -5 6 -10 14 -10 8 0 18 5 21 10 3 6 -3 10 -14 10 -12 0
-21 -4 -21 -10z"/>
<path d="M296 2693 c-11 -11 -6 -23 8 -23 8 0 17 4 20 9 7 10 -19 23 -28 14z"/>
<path d="M345 2690 c-3 -5 1 -10 9 -10 8 0 18 5 21 10 3 6 -1 10 -9 10 -8 0
-18 -4 -21 -10z"/>
<path d="M54 2679 c-3 -6 -1 -16 5 -22 9 -9 14 -8 20 2 6 9 18 11 35 7 32 -8
55 2 35 15 -20 12 -87 11 -95 -2z"/>
<path d="M186 2678 c3 -4 23 -7 44 -6 22 1 37 5 34 9 -2 4 -22 7 -44 6 -21 0
-36 -5 -34 -9z"/>
<path d="M0 2671 c0 -14 18 -23 31 -15 8 4 7 9 -2 15 -18 11 -29 11 -29 0z"/>
<path d="M2 2528 l-2 -88 40 0 c34 0 42 4 50 26 14 37 13 43 -16 56 -22 10
-25 17 -22 49 2 21 0 35 -4 33 -5 -3 -8 -18 -8 -35 0 -45 -28 -38 -33 9 -2 20
-4 -2 -5 -50z"/>
<path d="M107 2570 c-3 -11 -1 -20 4 -20 5 0 9 9 9 20 0 11 -2 20 -4 20 -2 0
-6 -9 -9 -20z"/>
<path d="M4510 2410 c0 -5 5 -10 10 -10 6 0 10 5 10 10 0 6 -4 10 -10 10 -5 0
-10 -4 -10 -10z"/>
<path d="M28 2368 l-28 -10 0 -104 c0 -83 3 -104 14 -104 8 0 21 -3 29 -6 12
-4 16 11 20 88 3 51 8 105 12 121 8 30 0 33 -47 15z"/>
<path d="M1697 2254 c-16 -9 -27 -17 -25 -20 5 -5 68 25 68 32 0 7 -15 3 -43
-12z"/>
<path d="M1948 2263 c-9 -2 -19 -10 -21 -17 -7 -18 28 -9 44 10 12 14 8 15
-23 7z"/>
<path d="M2037 2183 c-12 -11 -8 -23 8 -23 8 0 15 7 15 15 0 16 -12 20 -23 8z"/>
<path d="M1650 2145 c0 -5 5 -17 10 -25 5 -8 10 -10 10 -5 0 6 -5 17 -10 25
-5 8 -10 11 -10 5z"/>
<path d="M4400 2061 c0 -11 -6 -22 -12 -24 -7 -3 -3 -6 10 -6 17 -1 22 5 22
24 0 14 -4 25 -10 25 -5 0 -10 -9 -10 -19z"/>
<path d="M4941 1954 c0 -11 3 -14 6 -6 3 7 2 16 -1 19 -3 4 -6 -2 -5 -13z"/>
<path d="M5900 1867 c0 -15 28 -30 46 -26 5 1 26 -1 47 -6 27 -5 41 -15 47
-31 5 -13 17 -24 25 -24 9 0 14 -4 11 -9 -10 -15 36 -20 84 -10 85 19 105 20
145 7 33 -11 41 -19 48 -50 7 -28 14 -38 28 -38 28 0 27 56 -2 65 -13 4 -18
12 -15 22 4 8 -5 28 -18 44 -14 16 -26 24 -28 19 -2 -6 -16 -3 -33 6 -37 20
-85 21 -154 3 -50 -12 -55 -12 -91 8 -50 29 -140 42 -140 20z m185 -67 c3 -6
-1 -7 -9 -4 -18 7 -21 14 -7 14 6 0 13 -4 16 -10z"/>
<path d="M5076 1542 c-2 -4 -1 -64 4 -133 8 -125 18 -161 53 -187 9 -7 17 -23
17 -36 0 -19 -4 -22 -30 -18 -29 4 -41 -10 -20 -23 5 -3 7 -12 4 -19 -6 -15 7
-21 73 -31 29 -5 44 -13 48 -26 4 -10 10 -19 15 -19 5 0 7 -7 4 -15 -5 -12
-15 -14 -40 -9 -26 5 -35 2 -40 -10 -9 -24 -22 -19 -40 15 -24 48 -35 23 -32
-77 l3 -89 107 -5 c58 -3 110 -8 114 -12 4 -4 1 -15 -7 -24 -11 -14 -11 -18 4
-29 16 -11 22 -10 42 11 17 17 35 24 64 24 54 0 69 -18 65 -77 -2 -41 -1 -45
10 -31 8 11 20 15 34 11 18 -4 23 0 28 26 4 20 27 51 65 88 l59 57 -57 53
c-39 36 -51 53 -39 53 10 0 29 -9 43 -20 15 -11 28 -19 30 -17 8 9 -29 77 -46
87 -32 16 -50 13 -44 -10 4 -14 0 -20 -11 -20 -9 0 -16 4 -16 8 0 5 -18 16
-40 25 -51 20 -52 43 -2 52 40 6 124 -16 152 -40 8 -8 17 -13 20 -12 11 4 90
-36 90 -46 0 -5 11 -7 23 -3 14 3 32 -1 43 -9 10 -8 22 -15 27 -15 9 0 9 109
0 309 -7 176 1 164 -122 176 l-73 7 7 -167 7 -167 -48 7 c-78 11 -87 14 -73
31 8 9 8 14 1 14 -6 0 -14 15 -18 34 -4 26 -19 45 -60 78 -43 34 -54 48 -52
67 4 35 24 37 42 4 8 -15 15 -23 16 -17 1 41 90 10 90 -31 0 -14 5 -25 10 -25
7 0 10 32 8 88 l-3 87 -85 12 c-114 17 -115 17 -112 -35 4 -44 -11 -55 -36
-30 -10 10 -17 10 -32 0 -11 -6 -24 -12 -30 -12 -15 0 -12 26 5 40 21 17 19
57 -2 64 -18 5 -177 26 -200 26 -6 0 -14 -4 -17 -8z m704 -175 c0 -12 12 -58
26 -102 51 -156 24 -218 -74 -169 -52 25 -53 84 -6 204 7 19 18 47 24 63 12
33 30 36 30 4z m-502 -4 c-2 -11 -14 -19 -31 -21 -29 -4 -35 6 -15 26 19 19
50 15 46 -5z m58 -205 c-13 -7 -23 -5 -36 7 -28 26 -14 37 22 19 28 -14 29
-17 14 -26z"/>
<path d="M5915 1442 c-6 -6 3 -146 11 -171 4 -11 10 -9 27 8 27 25 66 27 107
6 l30 -16 0 76 c0 69 -2 76 -22 84 -30 11 -145 21 -153 13z"/>
<path d="M5583 1230 c-12 -28 -8 -39 8 -23 6 6 9 19 6 29 -3 17 -5 16 -14 -6z"/>
<path d="M6010 1219 c-13 -6 -35 -7 -47 -4 -23 5 -28 -2 -24 -34 2 -7 -1 -20
-5 -30 -4 -9 -6 -54 -4 -101 3 -111 18 -140 94 -180 87 -47 90 -43 80 103 -4
67 -9 138 -9 157 -1 19 -3 44 -4 56 -1 16 -40 48 -54 43 -1 0 -13 -5 -27 -10z"/>
<path d="M4465 955 c-12 -81 -12 -174 0 -177 6 -2 11 34 13 90 4 125 -1 164
-13 87z"/>
<path d="M5010 625 c0 -8 3 -15 8 -16 49 -7 89 -6 99 3 25 20 12 28 -47 28
-47 0 -60 -3 -60 -15z"/>
<path d="M6360 551 c-37 -15 -60 -38 -60 -58 0 -26 30 -93 42 -93 18 0 6 -31
-16 -41 -18 -9 -22 -16 -16 -28 17 -32 35 -86 32 -96 -6 -16 8 -75 17 -75 5 0
11 9 14 21 3 12 10 18 16 14 8 -4 11 49 11 173 0 185 -3 198 -40 183z"/>
<path d="M2130 466 c0 -9 7 -16 16 -16 9 0 14 5 12 12 -6 18 -28 21 -28 4z"/>
<path d="M2297 283 c-4 -3 -7 -33 -7 -65 0 -45 3 -58 15 -58 12 0 15 14 15 65
0 60 -6 75 -23 58z"/>
<path d="M3706 175 c-3 -9 0 -15 9 -15 9 0 12 6 9 15 -4 8 -7 15 -9 15 -2 0
-5 -7 -9 -15z"/>
<path d="M2350 120 c0 -33 3 -40 20 -40 17 0 20 7 20 40 0 33 -3 40 -20 40
-17 0 -20 -7 -20 -40z"/>
<path d="M6127 45 c-11 -5 -21 -18 -23 -27 -2 -16 7 -18 66 -18 53 0 69 4 74
16 15 38 8 45 -46 42 -28 -2 -60 -7 -71 -13z"/>
<path d="M6375 10 c-3 -5 1 -10 9 -10 9 0 16 5 16 10 0 6 -4 10 -9 10 -6 0
-13 -4 -16 -10z"/>
</g>
</svg>
